<svg width="390" height="234" viewBox="0 0 390 234" fill="none" xmlns="http://www.w3.org/2000/svg">
<path d="M141.74 116.536V113.392H143.972C144.62 113.392 145.092 113.528 145.388 113.8C145.692 114.064 145.844 114.452 145.844 114.964C145.844 115.476 145.692 115.868 145.388 116.14C145.092 116.412 144.62 116.544 143.972 116.536H141.74ZM140.6 112.432V121H141.74V117.496H144.356C145.22 117.504 145.872 117.284 146.312 116.836C146.76 116.388 146.984 115.764 146.984 114.964C146.984 114.164 146.76 113.544 146.312 113.104C145.872 112.656 145.22 112.432 144.356 112.432H140.6ZM150.781 112.432V121H156.457V120.04H151.921V112.432H150.781ZM161.325 117.46L162.777 113.464H162.801L164.229 117.46H161.325ZM162.177 112.432L158.841 121H160.005L160.965 118.42H164.589L165.525 121H166.785L163.437 112.432H162.177ZM176.055 115.012H177.195C177.131 114.556 176.995 114.156 176.787 113.812C176.579 113.46 176.319 113.168 176.007 112.936C175.695 112.704 175.339 112.528 174.939 112.408C174.539 112.288 174.115 112.228 173.667 112.228C173.011 112.228 172.427 112.348 171.915 112.588C171.411 112.82 170.987 113.14 170.643 113.548C170.307 113.956 170.051 114.436 169.875 114.988C169.699 115.532 169.611 116.116 169.611 116.74C169.611 117.364 169.691 117.948 169.851 118.492C170.019 119.036 170.267 119.508 170.595 119.908C170.923 120.308 171.335 120.624 171.831 120.856C172.327 121.08 172.907 121.192 173.571 121.192C174.667 121.192 175.531 120.892 176.163 120.292C176.795 119.692 177.167 118.852 177.279 117.772H176.139C176.115 118.124 176.043 118.452 175.923 118.756C175.803 119.06 175.635 119.324 175.419 119.548C175.211 119.764 174.959 119.936 174.663 120.064C174.375 120.184 174.043 120.244 173.667 120.244C173.155 120.244 172.715 120.148 172.347 119.956C171.979 119.764 171.675 119.508 171.435 119.188C171.203 118.86 171.031 118.48 170.919 118.048C170.807 117.608 170.751 117.144 170.751 116.656C170.751 116.208 170.807 115.776 170.919 115.36C171.031 114.944 171.203 114.576 171.435 114.256C171.675 113.928 171.975 113.668 172.335 113.476C172.703 113.284 173.143 113.188 173.655 113.188C174.255 113.188 174.771 113.34 175.203 113.644C175.643 113.948 175.927 114.404 176.055 115.012ZM181.091 112.432V121H187.043V120.04H182.231V117.076H186.683V116.116H182.231V113.392H187.007V112.432H181.091ZM190.827 112.432V121H191.967V117.076H196.479V121H197.619V112.432H196.479V116.116H191.967V112.432H190.827ZM202.547 116.716C202.547 116.284 202.603 115.86 202.715 115.444C202.827 115.02 203.003 114.64 203.243 114.304C203.483 113.968 203.791 113.7 204.167 113.5C204.543 113.292 204.991 113.188 205.511 113.188C206.031 113.188 206.479 113.292 206.855 113.5C207.231 113.7 207.539 113.968 207.779 114.304C208.019 114.64 208.195 115.02 208.307 115.444C208.419 115.86 208.475 116.284 208.475 116.716C208.475 117.148 208.419 117.576 208.307 118C208.195 118.416 208.019 118.792 207.779 119.128C207.539 119.464 207.231 119.736 206.855 119.944C206.479 120.144 206.031 120.244 205.511 120.244C204.991 120.244 204.543 120.144 204.167 119.944C203.791 119.736 203.483 119.464 203.243 119.128C203.003 118.792 202.827 118.416 202.715 118C202.603 117.576 202.547 117.148 202.547 116.716ZM201.407 116.716C201.407 117.3 201.491 117.864 201.659 118.408C201.835 118.944 202.095 119.42 202.439 119.836C202.783 120.252 203.211 120.584 203.723 120.832C204.235 121.072 204.831 121.192 205.511 121.192C206.191 121.192 206.787 121.072 207.299 120.832C207.811 120.584 208.239 120.252 208.583 119.836C208.927 119.42 209.183 118.944 209.351 118.408C209.527 117.864 209.615 117.3 209.615 116.716C209.615 116.132 209.527 115.572 209.351 115.036C209.183 114.492 208.927 114.012 208.583 113.596C208.239 113.18 207.811 112.848 207.299 112.6C206.787 112.352 206.191 112.228 205.511 112.228C204.831 112.228 204.235 112.352 203.723 112.6C203.211 112.848 202.783 113.18 202.439 113.596C202.095 114.012 201.835 114.492 201.659 115.036C201.491 115.572 201.407 116.132 201.407 116.716ZM213.404 112.432V121H219.08V120.04H214.544V112.432H213.404ZM223.612 120.04V113.392H225.532C226.06 113.392 226.504 113.468 226.864 113.62C227.224 113.764 227.516 113.98 227.74 114.268C227.972 114.548 228.136 114.892 228.232 115.3C228.336 115.7 228.388 116.156 228.388 116.668C228.388 117.196 228.332 117.648 228.22 118.024C228.116 118.392 227.98 118.7 227.812 118.948C227.644 119.196 227.452 119.392 227.236 119.536C227.028 119.68 226.816 119.792 226.6 119.872C226.384 119.944 226.18 119.992 225.988 120.016C225.796 120.032 225.636 120.04 225.508 120.04H223.612ZM222.472 112.432V121H225.412C226.124 121 226.74 120.9 227.26 120.7C227.78 120.5 228.208 120.212 228.544 119.836C228.88 119.452 229.128 118.984 229.288 118.432C229.448 117.872 229.528 117.232 229.528 116.512C229.528 115.136 229.172 114.112 228.46 113.44C227.748 112.768 226.732 112.432 225.412 112.432H222.472ZM233.321 112.432V121H239.273V120.04H234.461V117.076H238.913V116.116H234.461V113.392H239.237V112.432H233.321ZM243.057 112.432V121H244.197V117.34H246.981C247.261 117.34 247.485 117.384 247.653 117.472C247.821 117.552 247.957 117.664 248.061 117.808C248.165 117.944 248.241 118.108 248.289 118.3C248.337 118.484 248.377 118.68 248.409 118.888C248.449 119.096 248.473 119.308 248.481 119.524C248.489 119.74 248.497 119.944 248.505 120.136C248.513 120.32 248.529 120.488 248.553 120.64C248.585 120.792 248.641 120.912 248.721 121H249.993C249.873 120.856 249.781 120.692 249.717 120.508C249.661 120.316 249.617 120.116 249.585 119.908C249.553 119.7 249.533 119.488 249.525 119.272C249.517 119.056 249.505 118.844 249.489 118.636C249.465 118.428 249.429 118.228 249.381 118.036C249.341 117.844 249.273 117.672 249.177 117.52C249.089 117.36 248.965 117.224 248.805 117.112C248.653 117 248.453 116.92 248.205 116.872V116.848C248.725 116.704 249.101 116.436 249.333 116.044C249.573 115.652 249.693 115.196 249.693 114.676C249.693 113.98 249.461 113.432 248.997 113.032C248.541 112.632 247.905 112.432 247.089 112.432H243.057ZM246.573 116.38H244.197V113.392H247.029C247.565 113.392 247.953 113.528 248.193 113.8C248.433 114.072 248.553 114.424 248.553 114.856C248.553 115.168 248.497 115.424 248.385 115.624C248.281 115.816 248.137 115.972 247.953 116.092C247.777 116.204 247.569 116.28 247.329 116.32C247.089 116.36 246.837 116.38 246.573 116.38Z" fill="black"/>
<mask id="mask0_102_4" style="mask-type:alpha" maskUnits="userSpaceOnUse" x="0" y="0" width="390" height="234">
<path fill-rule="evenodd" clip-rule="evenodd" d="M390 234H0V141H390V234ZM390 93V0H0V93H390Z" fill="white"/>
</mask>
<g mask="url(#mask0_102_4)">
<path d="M0 0L390 234" stroke="black"/>
<path d="M390 0L0 234" stroke="black"/>
</g>
<path d="M0 0V-1H-1V0H0ZM390 0H391V-1H390V0ZM390 234V235H391V234H390ZM0 234H-1V235H0V234ZM0 1H390V-1H0V1ZM389 0V234H391V0H389ZM390 233H0V235H390V233ZM1 234V0H-1V234H1Z" fill="black"/>
</svg>
